<svg xmlns="http://www.w3.org/2000/svg" width="82" height="55" viewBox="0 0 82 55"
                                    fill="none" class="svg replaced-svg">
                                    <path
                                        d="M80.6938 17.0683L81.9805 13.7403L66.3058 0L65.9938 0.214083L47.3752 7.2983L47.2192 7.37615L35.8531 16.0173L36.36 16.9515L37.0033 18.236L3.3533 16.9321H3.33381L0 29.1348L2.94389 30.575H2.96339L3.56776 30.4582V43.8871L11.6781 47.2735V47.3125H51.8203H52.4051H79.2706V16.8542L80.6938 17.0488V17.0683ZM80.2064 15.1026L65.9548 2.93878L52.6976 12.4363L52.2882 11.2297L66.2278 1.47912L80.6158 14.0711L80.2064 15.1026ZM9.1631 27.6362L9.51403 26.488L51.8008 27.9671V28.804L9.1631 27.6362ZM51.2354 11.7551L51.6643 13.0202L38.0171 17.6132L37.5102 16.6207L51.2354 11.7551ZM47.8626 8.34926L62.0751 2.95824L51.3134 10.4901L39.5573 14.6745L47.8626 8.34926ZM51.8008 14.1879V26.6437L45.1331 18.528L39.6158 18.3139L51.8008 14.1879ZM44.5678 19.6762L50.3581 26.741L9.45554 25.3008L5.40038 18.1776L44.5678 19.6762ZM1.38421 28.512L4.17213 18.3528L8.48074 25.943L8.12982 27.0329L4.3476 20.5715L2.18355 28.9013L1.38421 28.512ZM3.27532 29.3294L3.54826 28.2785V29.2711L3.27532 29.3294ZM4.71802 43.1086V23.7827L4.75701 23.627L7.75939 28.765L11.6391 28.8623V46.0085L4.71802 43.1086ZM12.8283 46.1447V28.9013L51.8008 29.9522V46.1447H12.8283ZM78.0813 46.1447H52.9705V29.9912V27.3638V13.6819L65.8963 4.4179L78.0813 14.8301V16.6207V16.679V46.1447Z"
                                        fill="#231F20"></path>
                                    <path
                                        d="M60.1455 27.4611L60.126 28.0449H60.1455V39.9363H71.882V14.9275L60.1455 14.2074V27.4611ZM61.3152 38.7686V28.0644L70.7123 28.2396V38.788H61.3152V38.7686ZM70.7123 16.0368V27.0524L61.3152 26.8772V15.4529L70.7123 16.0368Z"
                                        fill="#231F20"></path>
                                    <path
                                        d="M38.0986 35.8103C37.6892 35.5379 37.6892 35.5379 37.4748 35.1097C37.3578 34.8956 37.3188 34.6621 37.2993 34.5258C37.2798 34.3896 37.2603 34.3118 37.1823 34.3118C37.1628 34.3118 37.1433 34.3118 37.1433 34.3312C37.1238 34.2923 37.1238 34.2534 37.1043 34.2339C37.0654 34.0977 37.0264 33.9614 36.9289 33.9614H36.9094C36.8119 33.9809 36.7924 34.0782 36.7729 34.1561C36.7729 34.1561 36.7729 34.1561 36.7729 34.1755C36.7534 34.1366 36.7339 34.0393 36.7339 34.0004C36.7144 33.8641 36.6949 33.7279 36.578 33.7279C36.4805 33.7279 36.4415 33.8252 36.4415 33.9031C36.4415 33.9225 36.4415 33.9225 36.422 33.942C36.383 33.903 36.3635 33.8057 36.344 33.7279C36.3245 33.6111 36.2855 33.4749 36.1685 33.4749C36.1296 33.4749 36.1101 33.4943 36.0906 33.5138C36.0321 33.5722 36.0321 33.6695 36.0321 33.7474C36.0321 33.7668 36.0321 33.7863 36.0321 33.8057C36.0126 33.7863 35.9931 33.7668 35.9736 33.7668C35.8761 33.689 35.7981 33.6306 35.7396 33.6306C35.7201 33.6306 35.6422 33.6306 35.6422 33.7474C35.6227 33.8641 35.7006 33.9809 35.7591 34.0782C35.7786 34.1366 35.8371 34.2144 35.8176 34.2339C35.7981 34.2534 35.7396 34.2534 35.6811 34.2728C35.4667 34.3312 35.0573 34.4091 34.7648 34.8178C34.6284 34.9929 34.4529 35.1681 34.2579 35.3238C33.9265 35.6157 33.5951 35.9077 33.4196 36.3553C33.2831 36.6667 33.1467 37.2311 32.9907 37.8149C32.7957 38.535 32.6008 39.2941 32.4448 39.5471C31.9379 40.3645 30.7292 40.7732 28.8381 40.7732C28.2532 40.7732 27.7463 40.7343 27.4344 40.7148C27.3369 40.7148 27.2394 40.6953 27.1809 40.6953C26.8885 40.598 26.674 40.4229 26.5375 40.2088C26.2646 39.7417 25.7967 38.6129 25.3483 37.5425C24.4905 35.4989 24.198 34.8567 24.0226 34.8567C23.8861 34.8762 23.8471 34.9735 23.8471 35.0708C23.8276 35.0319 23.7886 34.9735 23.7691 34.954C23.5157 34.5453 23.2232 34.3118 22.9503 34.3118C22.8138 34.3118 22.6968 34.3701 22.5994 34.448C22.3654 34.6815 22.3069 34.8372 22.2679 34.9735C22.2289 35.0902 22.2094 35.1681 22.112 35.2459C22.073 35.2654 21.995 35.3043 21.8975 35.3238C21.6441 35.3822 21.2541 35.4795 21.2151 35.9077C21.1761 36.4331 21.0397 36.6278 20.9227 36.7834C20.8057 36.9391 20.6887 37.0948 20.7667 37.4841C20.8252 37.776 20.8252 37.8539 20.5133 38.3015C20.2208 38.7297 19.246 40.7343 19.8309 41.5906C20.0259 41.8825 19.9674 42.155 19.8699 42.5832C19.714 43.2838 19.4605 44.3153 20.2598 46.281C20.7277 47.4292 21.6635 48.1299 22.2289 48.558C22.3264 48.6359 22.4239 48.7137 22.5019 48.7721C22.9503 49.1419 24.0616 49.6868 25.0363 49.6868C25.2508 49.6868 25.4653 49.6479 25.6407 49.609C25.8357 49.5506 26.0891 49.7647 26.4011 50.0566C26.8495 50.4653 27.4538 51.0297 28.4091 51.3022C28.5261 51.7304 28.6041 52.0223 28.6041 52.0612C28.6041 52.1585 28.3117 52.3142 28.0192 52.4894C27.8048 52.6062 27.7073 52.7424 27.7268 52.8397C27.7463 52.9176 27.8243 52.937 27.9412 52.9176C27.9607 52.9176 27.9997 52.8981 28.0192 52.8981C28.1167 52.8592 28.2142 52.8202 28.3702 52.8202C28.4676 52.8202 28.5846 52.8397 28.7016 52.8592C28.9355 52.9176 28.994 52.9954 29.0525 53.0733C29.111 53.1511 29.189 53.2484 29.4034 53.3068C29.4814 53.3263 29.5789 53.3457 29.6569 53.3652C30.0078 53.443 30.4172 53.5403 30.5537 53.7934C30.5732 53.8323 30.5732 53.8517 30.5927 53.8712C30.6122 53.9101 30.6317 53.9685 30.7097 53.9685C30.7292 53.9685 30.7487 53.9685 30.7877 53.9491C30.8656 53.9296 30.9631 53.8323 30.9826 53.735C31.0216 53.6571 31.0021 53.5598 30.9631 53.482C30.8851 53.3652 30.7682 53.2679 30.6317 53.1706C30.7292 53.19 30.8461 53.19 30.9631 53.2095C31.4505 53.229 31.8014 53.3068 32.0354 53.3847C31.9769 53.482 31.743 53.6377 31.509 53.7934C31.314 53.9296 31.2166 54.0658 31.2361 54.1631C31.2556 54.241 31.353 54.2605 31.4505 54.2215C31.47 54.2021 31.509 54.2021 31.5285 54.1826C31.6455 54.1242 31.7625 54.0853 31.9769 54.0853C32.0549 54.0853 32.1329 54.0853 32.2109 54.1048C32.4448 54.1437 32.5228 54.2021 32.5813 54.2799C32.6593 54.3578 32.7373 54.4356 32.9517 54.4745C33.0297 54.494 33.1272 54.494 33.2247 54.5135C33.5951 54.5718 34.0045 54.6108 34.1605 54.8638C34.18 54.8832 34.1994 54.9222 34.1994 54.9416C34.2189 54.9805 34.2384 55.0389 34.2969 55.0389C34.3164 55.0389 34.3359 55.0389 34.3749 55.0195C34.4529 54.9806 34.5309 54.8832 34.5504 54.7859C34.5699 54.6886 34.5504 54.6108 34.5114 54.5329C34.4334 54.4161 34.2969 54.3383 34.1605 54.2604C34.2774 54.2604 34.3944 54.2604 34.4919 54.2604C34.5894 54.2604 34.6868 54.241 34.7843 54.241C35.2717 54.241 35.6227 54.3383 35.7786 54.3772C35.8371 54.3967 35.8761 54.3967 35.8956 54.3967C35.9346 54.3967 35.9541 54.3772 35.9541 54.3578C35.9541 54.3383 35.9736 54.3188 35.9541 54.2799C35.8761 54.1242 35.7396 53.9685 35.2132 53.7934C35.0378 53.735 34.7258 53.7155 34.4334 53.6766C34.2774 53.6571 34.1215 53.6571 34.0045 53.6377C34.063 53.6182 34.1215 53.5987 34.18 53.5987C34.2579 53.5793 34.2969 53.5793 34.3164 53.5209C34.3164 53.4625 34.2579 53.443 34.0045 53.3847C33.907 53.3652 33.8095 53.3457 33.7121 53.3457C33.5951 53.3457 33.4976 53.3652 33.4196 53.3652C33.3416 53.3847 33.2831 53.3847 33.2441 53.3652C33.1467 53.2484 32.5618 52.0223 32.0744 50.913C32.3083 50.8351 32.5618 50.7378 32.7957 50.621C32.9127 50.6016 33.0102 50.5821 33.1077 50.5432C34.8428 50.0372 37.5528 47.9936 37.9232 44.4905C38.3326 40.6759 37.5333 39.2162 37.2603 38.7491C36.8899 38.0874 36.617 37.2505 36.9094 36.8808C37.1628 36.5499 37.1433 36.1412 37.1433 35.9271C37.1433 35.8882 37.1433 35.8298 37.1433 35.8103H37.1628C37.2603 35.8103 37.4553 35.8493 37.6307 35.8687C37.7867 35.8882 37.9232 35.9271 38.0012 35.9271C38.0207 35.9271 38.0791 35.9271 38.0986 35.8687C38.1376 35.8687 38.1376 35.8298 38.0986 35.8103ZM29.5984 51.4384C30.1053 51.4384 30.6707 51.3606 31.2556 51.2049C31.509 51.8471 31.782 52.4894 31.9184 52.8981C31.8599 52.8786 31.8014 52.8397 31.743 52.8202C31.5675 52.7424 31.2556 52.684 30.9826 52.6451C30.8461 52.6256 30.6707 52.5867 30.5732 52.5672C30.6317 52.5478 30.6902 52.5478 30.7487 52.5478C30.8266 52.5478 30.8851 52.5283 30.8851 52.4894C30.8851 52.431 30.8461 52.4115 30.5927 52.3337C30.4562 52.2948 30.3198 52.2753 30.1833 52.2753C30.1248 52.2753 30.0663 52.2753 30.0078 52.2753C29.9688 52.2753 29.9298 52.2753 29.9103 52.2753C29.8713 52.2753 29.8519 52.2753 29.8324 52.2558C29.7934 52.1975 29.6569 51.8861 29.5009 51.4579C29.5399 51.4384 29.5594 51.4384 29.5984 51.4384Z"
                                        fill="#231F20"></path>
                                    <defs>
                                        <clipPath id="clip0">
                                            <rect width="82" height="55" fill="#231F20"></rect>
                                        </clipPath>
                                    </defs>
                                </svg>