<svg xmlns="http://www.w3.org/2000/svg" width="71" height="70" viewBox="0 0 71 70"
                                    fill="none" class="svg replaced-svg">
                                    <path
                                        d="M70.9992 59.5444L61.9104 2.75434H58.185H58.167L56.6732 4.69324L56.6912 4.80197L11.4995 0.86979L11.4815 0H7.77407V0.0362413V0.0181206L6.15429 1.28656L6.20829 4.98317H6.17229L0.0531537 57.9679L0.0351562 58.1491L1.52895 60.7041L5.25442 60.3417L6.8022 45.8814L7.09016 67.2094V67.3906L9.01589 70.0181L13.1013 69.5288L11.8235 12.6301L18.5725 5.29122H18.6265L17.7807 39.2312L14.0192 39.5392V39.6117H14.0012L13.6952 44.0512L19.9943 47.7297V47.7841L51.04 44.8123L49.9061 52.7854L51.3999 54.1263V54.1444H54.4955L56.3312 39.8291L59.1208 19.5703L65.5639 59.345L67.5976 60.3236V60.3417L70.9992 59.5444ZM60.9926 3.84157L69.7753 58.6927L68.4435 58.9826L59.4448 3.82345H60.9926V3.84157ZM47.7824 8.66166L55.1254 15.8012L51.9219 37.7996L51.166 37.3285L47.7824 8.66166ZM50.3741 36.8392L50.0501 36.6399L47.5665 36.8392L47.6205 13.3911L50.3741 36.8392ZM56.0793 16.7435L56.5292 17.1784L53.4156 38.76L52.9297 38.452L56.0793 16.7435ZM55.2154 39.6479L55.1794 39.8835L54.4055 39.3942L57.4831 18.1206L58.113 18.7367L55.2154 39.6479ZM48.3943 7.73751L49.9601 7.86435L58.4189 16.5079L58.293 17.3777L48.3943 7.73751ZM51.6159 8.00932L53.6136 8.1724L57.915 12.2495L58.347 14.8952L51.6159 8.00932ZM55.3414 8.31737L56.1513 8.38985L56.0613 9.00595L55.3414 8.31737ZM57.0151 9.91198L57.2131 8.48045H57.2851L57.6091 10.4918L57.0151 9.91198ZM56.7992 5.8892L57.0511 7.35697L11.5715 3.606L11.5355 1.95703L56.7992 5.8892ZM11.5895 4.71136L14.8471 4.98317L11.6795 8.48045L11.5895 4.71136ZM1.115 57.9135L6.29827 13.0287L6.35227 17.3958L1.69092 58.892L1.115 57.9135ZM4.22857 59.345L2.71678 59.49L6.47825 26.0031L6.62223 36.8574L4.22857 59.345ZM8.13402 67.0101L7.23414 1.81206L7.81006 1.37717L8.9619 68.1336L8.13402 67.0101ZM10.0417 68.7859L8.87191 1.08724H10.4377L11.9675 68.5503L10.0417 68.7859ZM11.7335 11.0536L11.7155 10.0751L16.1969 5.0919L17.1507 5.16438L11.7335 11.0536ZM46.6846 7.59254L46.9006 7.80999L46.8286 36.8755L21.3622 38.9231L19.3644 5.34558L46.6846 7.59254ZM19.1125 13.0287L20.6603 38.9956L18.4646 39.1768L19.1125 13.0287ZM17.7087 40.3184L17.6907 41.0251L18.4106 41.0432L18.4286 40.264L20.7322 40.0828L20.8762 42.5835L21.5961 42.5472L21.4521 40.0103L46.8466 37.9627V38.7419H47.5665V37.8902L49.7802 37.709L50.536 38.1983L50.788 40.3184L51.5079 40.2278L51.3279 38.6875L54.2615 40.554L20.8762 43.4533L15.567 40.4996L17.7087 40.3184ZM14.7751 43.417L14.9191 41.3694L20.1923 44.3049L20.0303 46.4794L14.7751 43.417ZM21.2542 44.5043L54.8014 41.6231L54.6755 43.3445L21.1102 46.57L21.2542 44.5043ZM51.004 52.3142L52.0838 44.7036L51.9219 44.6855L52.6238 44.613L51.5259 52.7854L51.004 52.3142ZM53.5056 53.0028H52.6058L53.7576 44.5043L54.6215 44.4137L53.5056 53.0028ZM66.4998 58.5659L57.825 4.98317L58.4189 4.22211L67.3637 59.0008L66.4998 58.5659Z"
                                        fill="#231F20"></path>
                                    <defs>
                                        <clipPath id="clip0">
                                            <rect width="71" height="70" fill="#231F20"></rect>
                                        </clipPath>
                                    </defs>
                                </svg>