<svg xmlns="http://www.w3.org/2000/svg" width="21" height="13" viewBox="0 0 21 13"
                                fill="none" class="svg replaced-svg">
                                <path
                                    d="M7.36989 7.83991H10.6514C10.074 9.41392 8.51568 10.5445 6.69159 10.5312C4.47793 10.5135 2.64466 8.80205 2.55759 6.66051C2.46592 4.36378 4.36793 2.4661 6.72367 2.4661C7.80071 2.4661 8.7815 2.86071 9.52398 3.51249C9.69814 3.66767 9.96396 3.66767 10.1381 3.51249L11.3435 2.41733C11.5314 2.24441 11.5314 1.95621 11.3435 1.78329C10.1702 0.70587 8.5936 0.036361 6.85658 0.00532419C3.14881 -0.070051 0.0276852 2.86958 0.000186298 6.45655C-0.0273126 10.0657 2.99298 13.0009 6.71909 13.0009C10.3031 13.0009 13.2317 10.2874 13.4288 6.86446C13.4334 6.82013 13.438 5.3747 13.438 5.3747H7.36989C7.1224 5.3747 6.92074 5.56978 6.92074 5.80921V7.40539C6.92074 7.64925 7.1224 7.83991 7.36989 7.83991Z"
                                    fill="#B6B6B6">
                                </path>
                                <path
                                    d="M18.997 5.52051V3.9598C18.997 3.74698 18.8183 3.57849 18.6029 3.57849H17.2463C17.0263 3.57849 16.8521 3.75141 16.8521 3.9598V5.52051H15.2389C15.0189 5.52051 14.8447 5.69343 14.8447 5.90182V7.21423C14.8447 7.42706 15.0235 7.59554 15.2389 7.59554H16.8521V9.15625C16.8521 9.36908 17.0309 9.53756 17.2463 9.53756H18.6029C18.8229 9.53756 18.997 9.36464 18.997 9.15625V7.59554H20.6103C20.8303 7.59554 21.0045 7.42262 21.0045 7.21423V5.90182C21.0045 5.689 20.8257 5.52051 20.6103 5.52051H18.997Z"
                                    fill="#B6B6B6">
                                </path>
                            </svg>