<svg xmlns="http://www.w3.org/2000/svg"
                                width="21" height="21" viewBox="0 0 21 21" fill="none" class="svg replaced-svg">

                                <path
                                    d="M15.2005 0H5.79953C2.59551 0 0 2.59551 0 5.79953V15.2129C0 18.4045 2.59551 21.0124 5.79953 21.0124H15.2129C18.4045 21.0124 21.0124 18.4169 21.0124 15.2129V5.79953C21 2.59551 18.3921 0 15.2005 0ZM19.1372 15.2005C19.1372 17.3737 17.3737 19.1372 15.2005 19.1372H5.79953C3.62626 19.1372 1.8628 17.3737 1.8628 15.2005V5.79953C1.8628 3.62626 3.62626 1.8628 5.79953 1.8628H15.2129C17.3862 1.8628 19.1496 3.62626 19.1496 5.79953L19.1372 15.2005Z"
                                    fill="#B6B6B6">
                                </path>
                                <path
                                    d="M10.4939 5.09167C7.51344 5.09167 5.0918 7.51332 5.0918 10.4938C5.0918 13.4743 7.51344 15.9084 10.5063 15.9084C13.4992 15.9084 15.9209 13.4867 15.9209 10.4938C15.9085 7.51332 13.4868 5.09167 10.4939 5.09167ZM10.4939 14.0455C8.54419 14.0455 6.94218 12.456 6.94218 10.4938C6.9546 8.54407 8.54419 6.95448 10.4939 6.95448C12.4437 6.95448 14.0457 8.54407 14.0457 10.5062C14.0457 12.456 12.4561 14.0455 10.4939 14.0455Z"
                                    fill="#B6B6B6">
                                </path>
                                <path
                                    d="M16.1317 3.51465C15.7715 3.51465 15.4238 3.66367 15.163 3.91205C14.9022 4.16042 14.7656 4.52056 14.7656 4.8807C14.7656 5.24085 14.9146 5.58857 15.163 5.84936C15.4114 6.09774 15.7715 6.24676 16.1317 6.24676C16.4918 6.24676 16.8395 6.09774 17.1003 5.84936C17.3611 5.60099 17.4977 5.24085 17.4977 4.8807C17.4977 4.52056 17.3487 4.17284 17.1003 3.91205C16.852 3.65125 16.4918 3.51465 16.1317 3.51465Z"
                                    fill="#B6B6B6">
                                </path>

                                <defs>
                                    <clipPath id="clip0">
                                        <rect width="21" height="21" fill="white"></rect>
                                    </clipPath>
                                </defs>
                            </svg>