<svg xmlns="http://www.w3.org/2000/svg" width="63" height="65" viewBox="0 0 63 65"
                                    fill="none" class="svg replaced-svg">
                                    <path
                                        d="M62.7668 20.3575L42.6548 19.0647L13.2026 18.7374L0.249641 19.752L0.0332031 18.8029L30.0015 8.06773L30.168 8.035H36.6611L36.8609 8.0841L62.9832 19.4247L62.7668 20.3575ZM13.2026 17.7392L42.7214 18.0665L60.0364 19.1793L36.5779 9.00051H30.2679L3.84583 18.4756L13.2026 17.7392Z"
                                        fill="#231F20"></path>
                                    <path
                                        d="M13.6855 20.7502H12.6865V18.2301L12.9363 17.8046L29.6852 8.23136V3.74747L30.1847 3.25653H37.3438L37.8432 3.74747V8.80411H36.8443V4.2384H30.6841V8.50955L30.4344 8.93503L13.6855 18.5083V20.7502Z"
                                        fill="#231F20"></path>
                                    <path
                                        d="M37.1136 8.27692L36.252 8.77365L42.249 18.8243L43.1106 18.3276L37.1136 8.27692Z"
                                        fill="#231F20"></path>
                                    <path
                                        d="M37.5439 4.56571L37.1277 3.66566L37.8769 3.33837L34.0809 0.998238L29.6522 3.30564L30.4014 3.66566L29.9686 4.54935L28.3203 3.76385V2.89653L33.8644 0L34.3639 0.0163646L39.2088 2.99471L39.1422 3.86203L37.5439 4.56571Z"
                                        fill="#231F20"></path>
                                    <path
                                        d="M62.9667 22.7468L42.6049 21.6503L13.4857 21.2249L0.0665962 22.1249L0 18.852L0.998943 18.8356L1.04889 21.0776L13.4524 20.243H13.4691L42.6382 20.6685L61.9844 21.6994L62.0011 19.5229H63L62.9667 22.7468Z"
                                        fill="#231F20"></path>
                                    <path
                                        d="M6.84315 58.4378L3.62988 57.6687V20.8484H4.62883V56.8995L5.84421 57.1777V54.5267H6.84315V58.4378Z"
                                        fill="#231F20"></path>
                                    <path
                                        d="M15.201 57.685L5.32812 54.9194V40.0768L15.4008 41.3369L15.2843 42.3024L6.32707 41.1896V54.1667L15.484 56.7359L15.201 57.685Z"
                                        fill="#231F20"></path>
                                    <path
                                        d="M4.16225 24.6941L4.1123 23.7122L17.0653 23.1558L42.172 23.3194V18.5574H43.171V23.8104L42.6715 24.3013L17.0819 24.1377L4.16225 24.6941Z"
                                        fill="#231F20"></path>
                                    <path
                                        d="M16.8985 61.678L14.834 61.0725V23.6141H15.8329V60.3361L16.8985 60.647L17.9474 60.3361V23.8104H18.9463V61.0725L16.8985 61.678Z"
                                        fill="#231F20"></path>
                                    <path d="M6.84269 23.6141H5.84375V41.1241H6.84269V23.6141Z" fill="#231F20"></path>
                                    <path
                                        d="M17.9533 56.5541L17.9385 57.5359L39.9463 57.8573L39.9612 56.8755L17.9533 56.5541Z"
                                        fill="#231F20"></path>
                                    <path
                                        d="M40.8397 61.5798L39.1748 61.5307V23.7613H40.1738V60.5816L40.7398 60.5979L42.1716 60.2706V23.8104H43.1706V61.0561L40.8397 61.5798Z"
                                        fill="#231F20"></path>
                                    <path
                                        d="M41.7229 65H16.5495L3.64648 60.958V57.145L16.7659 60.9743H41.9393L59.8204 57.1941V61.0234L41.7229 65ZM16.6993 64.0181H41.623L58.8214 60.2216V58.4215L42.0392 61.9726H16.6161L16.5495 61.9562L4.64543 58.4705V60.2543L16.6993 64.0181Z"
                                        fill="#231F20"></path>
                                    <path
                                        d="M17.9562 41.566L17.9463 42.5479L40.1728 42.7644L40.1827 41.7826L17.9562 41.566Z"
                                        fill="#231F20"></path>
                                    <path
                                        d="M59.8369 58.3887L56.7568 58.1924V21.7321H59.8369V58.3887ZM57.7558 57.276L58.838 57.3414V22.714H57.7558V57.276Z"
                                        fill="#231F20"></path>
                                    <path d="M42.1718 60.9907H41.1729V64.8036H42.1718V60.9907Z" fill="#231F20"></path>
                                    <path d="M17.3984 61.0398H16.3994V64.8691H17.3984V61.0398Z" fill="#231F20"></path>
                                    <path
                                        d="M13.6851 41.7951L10.0889 41.4678V23.7613L13.6851 23.4504V41.7951ZM11.0878 40.5841L12.6861 40.7314V24.5305L11.0878 24.6777V40.5841Z"
                                        fill="#231F20"></path>
                                    <path
                                        d="M30.2514 42.5478H27.0381V23.9741H28.037V41.566H29.2524V23.9741H30.2514V42.5478Z"
                                        fill="#231F20"></path>
                                    <path
                                        d="M48.1993 52.0393H44.7363V24.0395H45.7353V51.0574H47.2004V24.1704H48.1993V52.0393Z"
                                        fill="#231F20"></path>
                                    <path
                                        d="M10.7288 38.4199L5.33984 40.0686L5.63673 41.0061L11.0256 39.3574L10.7288 38.4199Z"
                                        fill="#231F20"></path>
                                    <path d="M15.8332 37.9821H12.6865V38.964H15.8332V37.9821Z" fill="#231F20"></path>
                                    <path
                                        d="M27.8926 37.3594L17.9385 37.5585L17.9588 38.5401L27.9129 38.341L27.8926 37.3594Z"
                                        fill="#231F20"></path>
                                    <path d="M40.1914 37.3603H29.2529V38.3421H40.1914V37.3603Z" fill="#231F20"></path>
                                    <path d="M45.0688 37.3603H42.1719V38.3421H45.0688V37.3603Z" fill="#231F20"></path>
                                    <path
                                        d="M47.4552 37.326L47.3369 38.301L57.3887 39.4791L57.5069 38.5041L47.4552 37.326Z"
                                        fill="#231F20"></path>
                                    <path
                                        d="M47.7227 47.5991L47.5166 48.5599L57.389 50.6058L57.5951 49.645L47.7227 47.5991Z"
                                        fill="#231F20"></path>
                                    <path d="M44.7525 47.7027H42.1719V48.6845H44.7525V47.7027Z" fill="#231F20"></path>
                                    <path
                                        d="M57.2892 54.0357L46.9835 52.0393H42.1719V51.0574H47.0833L57.4724 53.0866L57.2892 54.0357Z"
                                        fill="#231F20"></path>
                                    <path
                                        d="M42.4471 23.3144L42.4053 24.2954L57.2262 24.9067L57.2681 23.9257L42.4471 23.3144Z"
                                        fill="#231F20"></path>
                                    <defs>
                                        <clipPath id="clip0">
                                            <rect width="63" height="65" fill="#231F20"></rect>
                                        </clipPath>
                                    </defs>
                                </svg>