<svg xmlns="http://www.w3.org/2000/svg" width="82" height="70" viewBox="0 0 82 70"
                                    fill="none" class="svg replaced-svg">
                                    <path
                                        d="M78.4573 28.758L82 27.3123L74.5165 8.85013L55.7481 0L32.9393 2.10996L32.8796 2.26626L5.51311 19.3413L5.37379 19.4195L0 30.7898L2.28884 32.5677L2.22913 54.5269L25.6947 69.8633L25.8937 70L76.2083 60.427L76.5665 28.6213L78.4573 28.758ZM55.5291 1.19174L73.5811 9.72928L80.4476 26.6871L79.0942 27.2342L72.168 10.9796L55.8078 3.00865L34.9893 5.31398L26.9286 24.9679L25.0578 23.7371L33.7951 3.20402L55.5291 1.19174ZM3.48301 32.0207L2.10971 30.9461L24.182 24.5967L26.2121 25.9252L3.48301 32.0207ZM6.30922 20.2205L32.0835 4.14178L23.8636 23.4636L1.77136 29.813L6.30922 20.2205ZM3.48301 33.2319L25.5553 27.3318L25.4359 68.3003L3.4233 53.9213L3.48301 33.2319ZM75.034 59.4697L26.6301 68.6715L26.7495 26.9997L27.5058 26.8044L27.4859 26.7262L34.7107 9.08457L55.1709 6.87692L69.0631 13.9687L75.3723 28.1329L75.034 59.4697ZM76.3675 27.4295L69.9786 13.1091L55.4097 5.68518L35.2282 7.87329L35.8252 6.40804L55.6087 4.21993L71.2524 11.8392L77.9398 27.5468L76.3675 27.4295Z"
                                        fill="#231F20"></path>
                                    <path
                                        d="M58.5341 10.5693L50.6924 8.92825V14.6916L58.5341 15.9615V10.5693ZM57.3399 14.5744L51.8866 13.6952V10.374L57.3399 11.5071V14.5744Z"
                                        fill="#231F20"></path>
                                    <path
                                        d="M39.5864 21.9788V64.1976L67.7491 59.0009V23.7175L68.3263 21.6857L38.6709 19.185L39.5864 21.9788ZM66.5549 23.5613V58.0045L55.6481 60.0168L55.469 21.7639L66.7937 22.7212L66.5549 23.5613ZM54.2748 21.6857L54.4738 60.2512L40.8005 62.7714V21.7834L40.3825 20.5135L54.2748 21.6857Z"
                                        fill="#231F20"></path>
                                    <path
                                        d="M52.4044 23.7176L42.6719 23.0143V41.1834L52.4044 40.5582V23.7176ZM51.2102 39.4642L43.8661 39.933V24.2646L51.2102 24.7921V39.4642Z"
                                        fill="#231F20"></path>
                                    <path
                                        d="M64.9633 39.8744V24.3623L57.2012 23.7762V40.48L64.9633 39.8744ZM58.4153 25.0265L63.789 25.4368V38.7803L58.4153 39.1906V25.0265Z"
                                        fill="#231F20"></path>
                                    <path
                                        d="M52.4044 42.6096L42.6719 43.3324V60.134L52.4044 58.2585V42.6096ZM51.2102 57.2816L43.8661 58.7078V44.4265L51.2102 43.8794V57.2816Z"
                                        fill="#231F20"></path>
                                    <path
                                        d="M57.4194 57.7505L64.9228 56.2071V41.5937L57.2402 42.2579L57.4194 57.7505ZM63.7485 42.8635V55.2498L58.6135 56.3048L58.4543 43.3129L63.7485 42.8635Z"
                                        fill="#231F20"></path>
                                </svg>