<svg xmlns="http://www.w3.org/2000/svg" width="21" height="17" viewBox="0 0 21 17"
                                fill="none" class="svg replaced-svg">
                                <path
                                    d="M21.0005 2.01086C20.2284 2.35284 19.398 2.58197 18.5265 2.68799C19.4152 2.15791 20.098 1.31322 20.4206 0.314625C19.5867 0.80708 18.6637 1.16274 17.6823 1.35767C16.8966 0.519814 15.7779 0 14.5392 0C12.1613 0 10.2294 1.92195 10.2294 4.29189C10.2294 4.62703 10.2671 4.95534 10.3426 5.26996C6.76371 5.09213 3.58969 3.38221 1.46224 0.783141C1.09165 1.41923 0.882338 2.15449 0.882338 2.94106C0.882338 4.4321 1.6441 5.74532 2.79704 6.51478C2.09018 6.49084 1.42793 6.29933 0.844592 5.97445V6.02916C0.844592 8.10842 2.33038 9.8457 4.29998 10.239C3.93969 10.3347 3.55881 10.3894 3.1642 10.3894C2.88626 10.3894 2.61861 10.3621 2.3544 10.3108C2.90342 12.0173 4.49214 13.2587 6.3794 13.2929C4.90734 14.4454 3.04753 15.1293 1.02989 15.1293C0.683318 15.1293 0.340181 15.1088 0.00390625 15.0712C1.91175 16.2921 4.17302 17.0034 6.60587 17.0034C14.5289 17.0034 18.8627 10.4613 18.8627 4.78776L18.849 4.23033C19.6931 3.62844 20.424 2.87266 21.0005 2.01086Z"
                                    fill="#B6B6B6">
                                </path>
                            </svg>