<?xml version="1.0" encoding="utf-8"?>
<!-- Generator: Adobe Illustrator 23.0.3, SVG Export Plug-In . SVG Version: 6.00 Build 0)  -->
<svg version="1.1" id="Layer_1" xmlns="http://www.w3.org/2000/svg" xmlns:xlink="http://www.w3.org/1999/xlink" x="0px" y="0px"
	 viewBox="0 0 1920 1041" style="enable-background:new 0 0 1920 1041;" xml:space="preserve">
<style type="text/css">
	.st0{fill:#912625;}
</style>
<path d="M1167.5,410.7c-0.6,10.2-3.5,19-8.7,26.4c-5.1,7.5-11.9,13.1-20.4,16.9c-8.4,3.8-17.8,5.7-28,5.7c-20.9,0-37.2-7.4-49-22.3
	c-11.7-14.9-17.6-33.1-17.6-54.7c0-11.7,1.3-23.2,3.8-34.7s6.6-21.9,12.1-31.4c5.5-9.4,12.9-17.1,22-22.8c9.1-5.8,19.9-8.6,32.5-8.6
	c9.2,0,17.9,1.7,26.1,5.1s14.8,8.5,19.8,15.4s7.6,15,7.6,24.4c0,13.2-3.8,23.3-11.4,30.4s-19.3,13.4-35.2,19
	c-15.9,5.6-26.2,9.5-30.9,11.7c-4.7,2.2-7.1,6.5-7.1,12.8c0,6.9,3.7,12,11.1,15.3s15.2,4.9,23.3,4.9c9.3,0,18.5-2.7,27.8-8.1
	c9.2-5.4,14.5-12.4,15.8-21c0-2,0.5-3,1.6-3h0.3c2.9,0.7,4.3,6.1,4.3,16.1v2.5H1167.5z M1093.4,356.9c5.9-1.7,12-3.5,18.3-5.4
	c6.4-1.9,11.8-4.3,16.4-7.3c4.5-3,6.8-6.7,6.8-11.3c0-5.5-2.2-9.8-6.7-13c-4.5-3.1-9.5-4.7-15.2-4.7c-9.8,0-17.7,3.7-23.6,11
	c-5.9,7.4-9.3,16.3-10.2,26.7c0,4.1,1.5,6.2,4.6,6.2h0.6C1088.5,358.3,1091.4,357.6,1093.4,356.9z"/>
<path d="M1230.3,456.5h-28.2c-2.7,0-4.4-0.5-5.1-1.4s-1.3-2.9-1.8-5.8c-1.9-19.9-2.9-46.7-2.9-80.3c0-18.1,0.1-33.2,0.2-45.2
	s0.5-24.6,1.2-37.8c0.6-13.2,1.7-26.4,3.2-39.5c0.6-4.7,1.4-7.9,2.3-9.6s3.4-2.5,7.2-2.5h23.9c5,0,7.5,1.2,7.5,3.6v0.3
	c0,0.7-0.2,1.7-0.6,3c-6.8,26.4-10.2,60.7-10.2,102.9c0,10,0.3,21.9,0.9,35.6s1.6,26.9,2.9,39.6c1.4,12.7,3.1,22.7,5.3,30
	c0.5,1.9,0.7,3.5,0.7,4.9c-0.3,1.5-1.7,2.3-4.3,2.3h-2.2V456.5z"/>
<path d="M1440,456.5h-24.6c-5,0-7.5-1.5-7.5-4.6v-0.3c6.8-20.7,10.2-45.7,10.2-75c0-38.2-8.6-57.3-25.9-57.3
	c-5.2,0-9.6,1.9-13.4,5.7c-3.7,3.8-5.6,8.2-5.6,13.3c0,2.8,0.1,6.2,0.1,10.3c0.1,4.1,0.2,8.6,0.4,13.5c0.2,4.9,0.3,9,0.4,12.5
	s0.2,8,0.3,13.5c0,22.2-1.2,42.4-3.6,60.6c-0.3,3.4-1.1,5.6-2.3,6.5s-3.7,1.4-7.5,1.4h-26.9c-3,0-4.6-0.9-4.6-2.6v-0.3
	c0-0.5,0.3-2.3,1-5.5c1.7-4.4,3.2-11.6,4.6-21.6s2.5-20.5,3.2-31.5s1.1-19.3,1.1-24.9c0-33-7.2-49.5-21.6-49.5
	c-17.9,0-26.9,17-26.9,51.1v6.9c0,31.3,2.6,54.6,7.8,69.8c0.6,1.3,1,2.8,1,4.6c0,2.4-1.4,3.6-4.2,3.6h-27.2c-4.2,0-6.9-1.7-7.9-5
	c-1.1-3.3-1.7-8.1-2-14.4c-1.3-19.8-1.9-49.8-1.9-89.7c0-33.2,1.2-53.4,3.6-60.6c1.5-4.6,8.5-6.9,21-6.9h7.5
	c7.6,0,11.4,1.4,11.4,4.3c0,1.3-0.3,3.2-0.9,5.6s-0.9,4.2-1,5.5c0,3.5,1.4,5.2,4.2,5.2h0.6c1.4,0,4.5-1.1,9.1-3.4
	c4.7-2.2,8.8-4.1,12.3-5.4c3.5-1.4,7.2-2.1,11-2.1c5.5,0,10,0.9,13.4,2.6s7,4,10.8,6.9s6.5,4.3,8.2,4.3c2.6,0,7-1.7,13.2-5
	c6.2-3.4,11-5.8,14.6-7.4s7.9-2.3,13.2-2.3c13.3,0,23.2,4.8,29.9,14.3c6.7,9.5,10.9,20.5,12.7,33c1.8,12.4,2.7,26,2.7,40.9
	c0,21.6-0.7,40.1-2,55.3c-0.3,3-0.5,5.8-0.7,8.2c-0.2,2.5-0.7,4.9-1.4,7.5c-0.7,2.6-1.9,4.6-3.5,6.2
	C1444.8,455.7,1442.7,456.5,1440,456.5z"/>
<path d="M1561.1,288.4h25.6c4.8,0,7.7,2.5,8.6,7.5c3.3,18.2,4.9,41.2,4.9,69.1c0,15.4-1.1,37.1-3.3,65.2c-0.5,7.5-1.1,12.9-1.7,16.1
	c-0.7,3.2-2,5.7-3.9,7.4c-2,1.8-5,2.9-9.1,3.5s-10.2,0.9-18.3,0.9h-1.4c-3.6,0-6-0.6-7-1.8c-1.1-1.2-1.9-2.8-2.6-4.9
	s-1.7-3.1-3.1-3.1c-1.8,0-4.7,1.3-8.9,3.8c-4.2,2.6-7.7,4.5-10.4,5.7c-2.8,1.3-6.3,1.9-10.6,1.9c-18.1,0-29.6-8.5-34.5-25.6
	c-4.9-17-7.4-37.7-7.4-61.9c0-19.6,1.3-38.8,3.9-57.7c1-8.5,2.1-15,3.4-19.4c1.3-4.5,4.2-6.7,8.7-6.7h25.6c3.9,0,5.8,1.1,5.8,3.3
	c0,2.6-0.3,4.5-1,5.5c-7,22.1-10.5,47.9-10.5,77.3c0,15.9,1.3,28.1,3.9,36.7c1.3,4.4,3.6,8.2,7,11.3c3.4,3.1,7.2,4.7,11.4,4.7
	c18.1,0,27.1-18.8,27.1-56.3c0-25.1-2.7-51.3-8.2-78.6C1555.2,289.7,1557.2,288.4,1561.1,288.4z"/>
<path d="M1686.4,441.1v0.4c0,0.8-2.5,2.8-7.3,5.9c-4.9,3.1-10,6-15.3,8.6s-9.3,3.8-12.1,3.8c-4.4,0-7.7-4.9-10-14.8
	s-3.7-20.5-4.4-31.8c-0.7-11.4-1-21.1-1-29.4c0-7.7,0.5-18.1,1.6-31c1.1-13,1.8-21.8,2-26.6c0-9-3.2-13.4-9.5-13.4
	c-1.4,0-3.3,0.5-5.5,1.5s-4,1.5-5.3,1.5c-1.8,0-2.6-1.3-2.6-3.9c0-6,1.1-12.1,3.4-18.1s5.5-9.1,9.7-9.1c1.1,0,2.7,0.2,5,0.6
	c3.9,0,6.6-1.3,8.2-3.9c1.5-2.7,2.7-6.4,3.6-11.2c0.9-4.3,2.9-7.6,6.2-9.8c3.3-2.2,8.3-4.3,15.1-6.1c6.8-1.8,10.5-2.8,11.1-3
	c1.6-0.6,3.3-1,5.2-1c2,0,3,1,3,2.9c0,1.5-0.3,3.1-0.9,4.9c-0.6,1.7-1.5,4.1-2.9,7.2c-1.3,3.1-2.3,5.7-2.9,7.8
	c-0.6,2.1-0.9,4.3-0.9,6.7c0,2.6,0.9,4.6,2.8,6c1.8,1.5,4.1,2.2,6.7,2.2c1,0,2.5-0.2,4.4-0.7s3.5-0.7,4.7-0.7c3.3,0.6,5,3,5,7.2
	c0,2.9-0.7,7.3-2,13.1c-0.2,0.8-0.3,1.8-0.5,2.9s-0.5,2.3-0.8,3.4c-0.4,1.1-0.9,2.1-1.5,2.7c-0.6,0.7-1.4,1.1-2.3,1.1
	c-1.2,0-3-0.5-5.2-1.3c-2.2-0.9-4-1.3-5.3-1.3c-5.1,0-8.9,2.5-11.2,7.6c-2.4,5.8-3.6,17-3.6,33.7c0,16,0.7,29.7,2,41.2
	c1.3,11.4,4.3,22.5,8.8,33.2C1684.6,436.1,1686.2,439.8,1686.4,441.1z"/>
<path d="M1818.1,456.5h-27.2c-4.2,0-6.2-1.1-6.2-3.3c0-0.7,0.1-1.4,0.4-2.2c0.2-0.8,0.4-1.6,0.6-2.3c4.3-10.8,7.4-24.8,9.3-41.8
	c1.9-17.1,2.8-33.6,2.8-49.6c0-28.8-6.5-43.3-19.4-43.3c-19,0-28.5,19.8-28.5,59.3c0,13.5,0.8,29,2.3,46.5c0.2,2.2,1,7.4,2.3,15.5
	c1.3,8.2,2,13.9,2,17.3c0,0.9-0.5,1.8-1.5,2.6s-2,1.3-3,1.3h-27c-3.7,0-6.3-0.9-7.5-2.6c-1.3-1.7-2-4.6-2-8.6
	c0-5.2-0.2-12.9-0.6-23.1s-0.6-17.9-0.6-23.1c0-22,0.3-38.6,1-49.8l1.3-33.1c1.3-22.9,3.5-46.8,6.6-71.7c0.5-3.9,1.4-6.7,2.5-8.2
	s3.4-2.3,6.7-2.3h23.3c5,0,7.5,1.4,7.5,4.2v0.3c-0.9,4.5-2.3,10.2-4.2,17c-1.9,6.8-3.4,12.6-4.4,17.4c-1,4.8-1.5,9.9-1.5,15.2
	c0,6.1,1.4,9.1,4.2,9.1c2,0,5.5-1.3,10.7-3.9c5.1-2.6,9.5-4.6,13.2-6.1s7.7-2.2,12.2-2.2c12.1,0,21,4.6,26.9,13.7
	s9.5,19.4,10.9,30.7c1.4,11.4,2.1,24.2,2.1,38.4c0,22.1-1.4,42.8-4.2,62.2c-0.3,2.7-0.6,6.3-1.1,10.7c-0.5,4.4-1.5,8.1-2.9,11.1
	C1823.3,455,1821.1,456.5,1818.1,456.5z"/>
<path d="M1225.8,544.3h25.1c4.7,0,7.5,2.5,8.4,7.4c3.2,17.9,4.8,40.5,4.8,67.9c0,15.1-1.1,36.4-3.2,64c-0.5,7.4-1,12.6-1.7,15.8
	c-0.7,3.1-1.9,5.6-3.9,7.3s-4.9,2.9-8.9,3.4c-4,0.6-10,0.8-18,0.8h-1.3c-3.6,0-5.9-0.6-6.9-1.8s-1.9-2.7-2.5-4.8c-0.6-2-1.6-3-3.1-3
	c-1.7,0-4.6,1.3-8.7,3.7c-4.1,2.5-7.5,4.4-10.2,5.6c-2.7,1.3-6.2,1.9-10.4,1.9c-17.8,0-29.1-8.4-33.9-25.1
	c-4.8-16.7-7.3-37-7.3-60.8c0-19.3,1.3-38.2,3.8-56.6c0.9-8.3,2.1-14.7,3.4-19.1c1.3-4.4,4.1-6.6,8.5-6.6h25.2
	c3.8,0,5.7,1.1,5.7,3.2c0,2.6-0.3,4.4-1,5.4c-6.8,21.7-10.3,47.1-10.3,76c0,15.6,1.3,27.6,3.8,36.1c1.3,4.3,3.5,8,6.9,11.1
	c3.3,3,7,4.6,11.2,4.6c17.8,0,26.7-18.4,26.7-55.3c0-24.7-2.7-50.4-8.1-77.2C1220,545.6,1222,544.3,1225.8,544.3z"/>
<path d="M1322.5,709.4h-24.1c-3.2,0-5.3-0.9-6.4-2.6c-1.5-2.5-2.3-8.1-2.3-16.7v-6.8l-1.6-35V636c0-12.8,0.1-23.6,0.2-32.5
	s0.3-17.8,0.6-26.9c0.3-9.1,0.9-18.3,1.7-27.5c0.3-3.9,2.7-5.8,7.1-5.8h21.8c4.1,0,6.1,1.4,6.1,4.2c0,5.8-0.4,13.9-1.3,24.2
	s-1.3,18.3-1.3,23.7c0,36.8,2.9,70.2,8.7,100.1c0.6,2.3,0.9,4.4,0.9,6.4C1332.8,706.9,1329.3,709.4,1322.5,709.4z M1330.5,505.7
	c0,5.3-1.9,9.9-5.6,13.7s-8.3,5.7-13.7,5.7c-5.5,0-10.2-1.4-14.1-4.4c-3.9-2.9-5.9-7-5.9-12.4c0-5.2,1.9-9.6,5.6-13
	c3.8-3.5,8.3-5.3,13.7-5.7c5.6,0,10.2,1.3,14,4C1328.3,496.2,1330.3,500.3,1330.5,505.7z"/>
<path d="M1397.1,709.4h-27.7c-2.6,0-4.3-0.4-5-1.3c-0.7-0.9-1.3-2.8-1.7-5.7c-1.9-19.5-2.8-45.8-2.8-78.9c0-17.8,0.1-32.6,0.2-44.4
	c0.1-11.8,0.5-24.2,1.2-37.2c0.6-13,1.7-25.9,3.1-38.8c0.6-4.7,1.3-7.8,2.3-9.4c0.9-1.6,3.3-2.4,7.1-2.4h23.5c4.9,0,7.4,1.2,7.4,3.5
	v0.3c0,0.7-0.2,1.6-0.6,2.9c-6.7,26-10,59.7-10,101c0,9.8,0.3,21.5,0.9,35s1.6,26.4,2.9,38.9c1.4,12.4,3.1,22.3,5.2,29.5
	c0.5,1.9,0.7,3.5,0.7,4.8c-0.3,1.5-1.7,2.3-4.2,2.3L1397.1,709.4L1397.1,709.4z"/>
<path d="M1525.5,709.4h-42.7c-15.3,0-26.6-1.7-33.9-5.2c-11.5-5.7-19.9-15.1-25-28.4c-5.2-13.3-7.8-27.4-7.8-42.4
	c0-30.4,8.6-55,25.7-74c11.4-12.2,23.4-18.3,36.1-18.3c3,0,7.8,0.6,14.1,1.9h0.3c3.9,0,6-2.6,6.4-7.7c0-3.3-0.3-6.5-0.9-9.7
	s-1.5-7.3-2.7-12.4c-1.3-5.1-2.1-8.8-2.5-11.2c-0.5-2.4-0.7-4.9-0.7-7.6c0-2.4,2-3.5,6.1-3.5h22.5c4.6,0,7.9,1.2,9.9,3.5
	c1.9,2.4,3.1,4.9,3.3,7.6c0.3,2.8,0.5,7.4,0.6,13.9l3.2,35.4c0.8,15.7,1.3,39.4,1.3,71.1c0,18.6-1.2,42-3.5,70.2
	c-0.3,5.4-0.8,9.5-1.4,12.4c-0.7,2.9-2.5,4.3-5.6,4.3h-2.8V709.4z M1505.2,615.1v-9.3c0-15.1-1.2-25.8-3.5-32.2
	c-2.7-6.4-7.2-9.6-13.5-9.6c-8.6,0-15.7,3.5-21.2,10.3c-5.6,6.9-9.6,15.2-12.1,25s-3.7,18.8-3.7,27.1c0,10.9,2.3,20.9,6.9,30
	c4.6,9.2,11.9,13.7,21.8,13.7c10.7,0,17.6-4.9,20.7-14.8c3.1-9.8,4.7-22,4.7-36.4v-3.8H1505.2z"/>
<path d="M1677.4,664.4c-0.6,10-3.5,18.6-8.5,26c-5.1,7.3-11.7,12.9-20,16.6c-8.3,3.7-17.4,5.6-27.5,5.6c-20.6,0-36.6-7.3-48.1-21.9
	c-11.5-14.6-17.3-32.5-17.3-53.7c0-11.5,1.3-22.8,3.7-34.1c2.5-11.3,6.4-21.5,11.9-30.8c5.4-9.3,12.7-16.8,21.6-22.4
	s19.6-8.5,31.9-8.5c9.1,0,17.6,1.7,25.6,5c8,3.4,14.5,8.4,19.5,15.1c4.9,6.7,7.4,14.7,7.4,24c0,12.9-3.7,22.9-11.2,29.8
	s-19,13.1-34.6,18.6s-25.7,9.3-30.4,11.5c-4.6,2.2-6.9,6.3-6.9,12.5c0,6.8,3.6,11.8,10.9,15s14.9,4.8,22.9,4.8
	c9.1,0,18.2-2.6,27.3-8c9.1-5.3,14.2-12.2,15.6-20.6c0-1.9,0.5-2.9,1.6-2.9h0.3c2.8,0.7,4.2,6,4.2,15.8L1677.4,664.4L1677.4,664.4z
	 M1604.7,611.6c5.8-1.7,11.8-3.4,18-5.3c6.3-1.9,11.6-4.2,16.1-7.1c4.5-2.9,6.7-6.6,6.7-11.1c0-5.4-2.2-9.6-6.6-12.7
	c-4.4-3.1-9.4-4.6-14.9-4.6c-9.6,0-17.4,3.6-23.2,10.8c-5.8,7.3-9.1,16-10,26.2c0,4,1.5,6,4.5,6h0.6
	C1599.8,613,1602.7,612.2,1604.7,611.6z"/>
<path d="M1736.6,709.4h-27c-5,0-7.6-3.4-8-10.3c-1.9-17.2-2.9-43-2.9-77.5c0-7.6,0.1-19,0.3-34.3s0.3-26.7,0.3-34.3
	c0-3.4,0.4-5.6,1.1-6.8s2.5-1.8,5.3-1.8h22.9c2.4,0,3.9,0.5,4.7,1.6c0.8,1.1,1.3,2.6,1.6,4.6c0.3,2,0.7,3.5,1.3,4.4
	c0.6,1,1.8,1.5,3.7,1.5c2.4,0,4.5-0.5,6.2-1.6s4.5-2.9,8.1-5.7c3.6-2.7,6.8-4.8,9.5-6.1c2.7-1.4,5.7-2,9.1-2c4.6,0,8.7,1.2,12.4,3.5
	c3.7,2.3,6.5,5.4,8.4,9.4c2,3.9,3,8.2,3,12.8c0,6.1-2.1,11.8-6.3,17.2c-4.2,5.4-9.3,8.6-15.3,9.5c-0.7,0-1.7-1.7-2.9-5
	c-1.2-3.4-2.8-6.2-4.8-8.5s-5.2-3.5-9.3-3.5c-10.5,0-17.2,5.4-20.1,16.2s-4.3,23.5-4.3,38.2c0,10.7,0.6,23.1,1.9,37.2
	c1.3,14.1,3.1,25,5.4,32.6c0.2,0.6,0.4,1.3,0.6,2.1c0.3,0.8,0.4,1.5,0.4,2.1c0,1.2-0.6,2.2-1.7,3.1
	C1738.9,708.9,1737.8,709.4,1736.6,709.4z"/>
<path d="M1858.5,676.2c5.7,0,10.9-1.5,15.7-4.7c4.7-3.1,7.1-7.5,7.1-13c0-5.4-2.2-9.5-6.5-12.2s-12.8-7.1-25.6-13.4
	c-12.7-6.2-22.2-12.6-28.4-19.3c-6.2-6.6-9.3-15.4-9.3-26.3c0-9.4,2.4-17.6,7.3-24.7c4.9-7,11.3-12.4,19.4-16.1
	c8-3.7,16.8-5.6,26.4-5.6c16.2,0,30.1,4.2,41.6,12.6c5.8,4.3,8.6,8.1,8.6,11.2c0,2.3-1.1,5.3-3.4,9.3c-2.3,3.9-5,7.5-8.2,10.8
	s-6.1,5.2-8.6,5.7h-0.3c-1,0-2.8-1.6-5.3-4.9c-2.6-3.3-4.7-5.8-6.3-7.7s-4.1-3.8-7.4-5.8c-3.4-1.9-7.3-2.9-11.9-2.9
	c-4.7,0-9,1.2-13,3.7s-6,5.8-6,10.1c0,5.9,4.7,11.5,14,16.9c9.3,5.3,18.5,10.3,27.7,14.9c9.1,4.6,17,10.6,23.8,18
	s10.2,17.2,10.2,29.4c0,10.2-2.9,19.1-8.6,26.8s-13.2,13.5-22.4,17.5s-18.8,6-28.9,6c-9.3,0-18.1-1.8-26.5-5.3s-15.2-8.8-20.4-15.7
	s-7.8-15.2-7.8-24.7c0-7.1,1.4-13.7,4.2-20c0.6-1.4,1.2-2.9,2-4.6c0.7-1.6,1.5-2.6,2.2-2.8h0.6c0.2,0,0.7,0.7,1.3,2
	c0.6,6.3,3.1,12.2,7.5,17.5c4.3,5.3,9.7,9.6,16.2,12.6C1845.8,674.7,1852.2,676.2,1858.5,676.2z"/>
<path d="M1117.3,639.2c-4.5-9.8-8.7-17-12.6-21.7s-9.7-11.2-17.4-19.4c-7.8-8.2-11.6-13.4-11.6-15.4v-0.4c0.2-2.6,3.9-7.7,10.9-15.2
	c7.1-7.4,12.8-14.6,17.1-21.4c4.3-6.8,6.5-14.9,6.5-24.2c0-29.5-22.4-44.2-67.1-44.2H1020c0.2-0.4,0.5-0.5,0.6-0.9
	c3.5-9.2,5.2-36.4,5.2-81.4c0-58.7-5.6-107.1-16.8-145.1c-1-3.5-1.8-6.3-2.4-8.5c-0.6-2.1-1.3-3.8-2.1-5s-2-2.1-3.5-2.6
	s-3.9-0.7-7.1-0.7h-37.2c-4.8,0-7.1,1-7.1,3c0,1.3,2.6,7.8,7.8,19.5s9.6,22.3,13.1,32.1c3.5,9.7,5.3,17.9,5.3,24.5
	c0,5.5-3.8,8.2-11.3,8.2c-2,0-4.9-0.1-8.8-0.2S949,320,947,320c-13.9,0-26.9,2.4-39,7.1c-0.9,0.2-2.2,0.7-4.1,1.3
	c-1.9,0.6-3.4,0.9-4.5,0.9c-6.5,0-9.8-4.8-9.8-14.3c1.2-12.1,3.8-24.9,7.9-38.4c4-13.5,8.8-25.8,14.3-37c0.1-0.5,0.3-1.3,0.6-2.1
	c0.3-0.9,0.5-1.5,0.5-2c0-1.8-1.9-2.7-5.6-2.7h-37.9h-2.7c-2.7,0-4.9,0.8-6.6,2.4c-1.6,1.6-3,3.9-3.9,6.8c-0.9,2.9-1.7,6-2.3,9.2
	s-1.3,7.5-2.3,12.7c-6.5,36.7-9.7,74.7-9.7,114c0,40.2,1.3,72,3.8,95.3c0.5,4,1.8,6.6,3.8,7.8c2.1,1.3,5.2,1.9,9.2,1.9h39.7
	c4,0,6-1.1,6-3.4v-0.4c-2.2-6.5-4.3-13-6.4-19.3c-2.1-6.3-3.8-12.1-5.1-17.2s-2.4-10.3-3.3-15.7c-0.9-5.3-1.3-10.8-1.3-16.5
	c0-10.9,3.2-20.1,9.6-27.5c6.3-7.4,14.6-12.9,24.7-16.5s20.4-5.4,31-5.4c19.3,0,28.9,8.1,28.9,24.4c0,11.5-1.5,23.7-4.5,36.7
	s-6.4,25.4-10.3,37.3c-1.4,4.4-2.5,7.7-3.4,10.5h-0.1c0,0-8.7,25-9.5,43.1c0,1.1,0.2,1.8,0.3,2.6c-1.5,12.5-3.1,24.8-3.8,38.2
	c-0.9,19.2-1.4,40.7-1.4,64.6c0,38.9,1.9,72,5.6,99.1c0.8,6.5,3.8,9.7,9.1,9.7h87c21,0,38.3-4.4,51.9-13.1
	c13.6-8.8,20.4-23.1,20.4-43.1C1124,659.6,1121.8,649,1117.3,639.2z M993.9,568.4c0-17.6,3.1-31.2,9.2-40.8
	c6.2-9.5,17.5-14.3,33.9-14.3c7.2,0,13.4,1.5,18.7,4.4c5.3,2.9,7.9,7.6,7.9,14c-0.4,5.1-4.4,12.1-12.2,21
	c-7.8,8.9-16.5,16.7-26.3,23.5c-9.7,6.8-17.6,10.3-23.5,10.3c-5.3,0-7.9-3.6-7.9-10.9v-7.2H993.9z M1063.9,680.7
	c-8.5,5.4-18.8,8.2-30.7,8.2c-11.7,0-20.2-2.3-25.5-6.9s-8.7-10.4-10-17.4c-1.3-7.1-1.9-17-1.9-29.7c0.2-3.2,2.5-6.5,6.7-9.6
	c4.2-3.2,9-6.2,14.5-8.9c5.4-2.7,10.3-5.2,14.5-7.2c3.1-2,6.4-3,10.1-3c4.9,0.4,10.2,3.5,15.7,9.5s10.1,12.9,13.9,20.8
	s5.7,14.4,5.7,19.5C1076.8,667,1072.5,675.2,1063.9,680.7z"/>
<g>
	<polygon class="st0" points="30.5,500.2 -0.2,469.4 26.5,435.5 100.9,164.1 406.8,0 409.1,0.5 936.3,108.6 1109,178.7 
		1104.1,190.6 932,120.7 408.8,13.5 111.8,172.8 38.2,441.4 16.9,468.4 30.3,481.8 59.7,451.3 131.4,199 133.9,197.8 409.1,54.6 
		411.3,55 936.1,151.1 947.1,181.8 935,186.1 926.5,162.4 411.1,68 142.3,207.9 71.2,457.9 	"/>
	<polygon class="st0" points="1071,1041.4 57.9,869.7 46.6,467.7 59.5,467.3 70.4,858.8 1065.8,1027.5 1214.8,846 1224.8,854.2 	"/>
	
		<rect x="978.4" y="935.7" transform="matrix(2.655439e-02 -0.9996 0.9996 2.655439e-02 100.4891 1987.5923)" class="st0" width="184.7" height="12.9"/>
	<path class="st0" d="M793.9,961.8l-7.4-1.2l-555.4-86l-14.9-657.8l577.7-29.2V961.8z M243.7,863.6l537.4,83.2V201.1L229.4,229
		L243.7,863.6z"/>
	
		<rect x="461.3" y="210.7" transform="matrix(1 -7.225265e-03 7.225265e-03 1 -4.0192 3.3939)" class="st0" width="12.8" height="694.5"/>
	
		<rect x="499.8" y="210.7" transform="matrix(1 -7.235407e-03 7.235407e-03 1 -4.0452 3.6773)" class="st0" width="12.8" height="700.4"/>
	<polygon class="st0" points="466.8,885.1 268.1,855.4 268,849.9 258.8,260.9 463.1,253 463.6,265.8 271.9,273.2 280.8,844.3 
		468.7,872.4 	"/>
	<polygon class="st0" points="741.7,926.2 508.8,891.4 510.7,878.7 728.9,911.3 728.9,255.6 505.4,264.2 504.9,251.4 741.7,242.2 	
		"/>
	
		<rect x="362.3" y="473.9" transform="matrix(2.602998e-02 -0.9997 0.9997 2.602998e-02 -213.6544 926.6509)" class="st0" width="12.9" height="198.2"/>
	
		<rect x="614.4" y="465" transform="matrix(2.607400e-02 -0.9997 0.9997 2.607400e-02 25.3321 1185.0465)" class="st0" width="12.9" height="229"/>
	
		<rect x="362.3" y="446" transform="matrix(2.608055e-02 -0.9997 0.9997 2.608055e-02 -185.772 899.4484)" class="st0" width="12.9" height="198.2"/>
	
		<rect x="614.4" y="437.1" transform="matrix(2.603023e-02 -0.9997 0.9997 2.603023e-02 53.2565 1157.8978)" class="st0" width="12.9" height="229"/>
	
		<rect x="247.2" y="305.6" transform="matrix(0.6793 -0.7339 0.7339 0.6793 -128.4702 330.054)" class="st0" width="132.3" height="12.9"/>
	<polygon class="st0" points="270.6,320.9 261.7,311.6 314.5,260.4 323.5,269.6 	"/>
	
		<rect x="684.5" y="234.5" transform="matrix(0.7222 -0.6917 0.6917 0.7222 -14.6287 560.8693)" class="st0" width="12.8" height="128.3"/>
	
		<rect x="703.5" y="241.8" transform="matrix(0.7056 -0.7086 0.7086 0.7056 12.2125 584.7934)" class="st0" width="12.9" height="71.7"/>
	<polygon class="st0" points="279.8,844.1 268.8,837.6 341.6,713.6 265.4,585.9 276.4,579.3 356.5,713.6 	"/>
	<polygon class="st0" points="368,699.6 291.7,573.8 302.6,567.1 367.8,674.5 428.1,571.5 439.1,577.9 	"/>
	<polygon class="st0" points="464.7,859.1 377.9,711.6 461,581 470.7,589.7 393,711.8 475.8,852.5 	"/>
	<polygon class="st0" points="441.5,878.9 368.4,754.7 306.9,854.9 296,848.2 368.7,729.7 452.6,872.4 	"/>
	<polygon class="st0" points="513.8,879.2 503.2,872 591.5,741.9 500.7,589.1 511.7,582.6 606.7,742.4 	"/>
	<polygon class="st0" points="617.9,729.9 528.3,579.8 539.3,573.2 618.4,705.7 701.8,578.3 712.6,585.4 	"/>
	<polygon class="st0" points="729.8,913.3 628.8,744.7 729.9,594.8 740.6,602 644,745.1 740.8,906.7 	"/>
	<polygon class="st0" points="695.8,917 616.2,785.4 540,892.5 529.6,885 617.1,762 706.8,910.3 	"/>
	<path class="st0" d="M467.7,548.6"/>
	<path class="st0" d="M467.7,548.6"/>
</g>
<g>
	<path d="M986.6,806.7c0.9-0.5,1.8-1.2,2.8-1.3c2.6-0.3,4.1-1.6,4.8-4c3.7-12.7,7.4-25.4,11-38.2c1.2-4.3,0.6-4.9-4-5
		c-0.7,0-1.4-0.1-3.1-0.3c1.3-1,1.9-1.9,2.6-2c8.1-1,16.3-1.6,24.3,0.4c5.8,1.5,8.7,4.5,9.1,9.3c0.5,5.5-2,9.7-7.5,12.1
		c-2.4,1-5,1.6-7.6,2.4c1.2,0.4,2.5,0.8,3.8,1.3c8.7,3.3,11,13.1,4.6,19.9c-4.7,5-10.9,6.7-17.4,7c-7.6,0.3-15.3,0.1-22.9,0.1
		C987,807.8,986.8,807.2,986.6,806.7z M1022,791.8c0.1-6.7-5.4-11.4-12.2-10.2c-0.7,0.1-1.6,0.9-1.8,1.6c-1.8,5.9-3.5,11.7-5,17.6
		c-0.7,2.6,0.5,4,3.2,4.4C1014.6,806.4,1021.9,800.3,1022,791.8z M1009.4,778.3c7.5,1.1,13.7-2.2,15.8-8.2c2.3-6.6-1.2-12.5-7.5-12
		c-1.1,0.1-2.7,1-3,1.9C1012.8,765.9,1011.2,772,1009.4,778.3z"/>
	<path d="M1125.7,797.1c-1.7,2.2-2.7,3.9-4,5.2c-1.9,1.9-3.9,4-6.2,5.4c-5.9,3.5-11.7,0.4-12.5-6.4c-1-8.5,2.8-15.3,8.6-21
		c4.3-4.3,9.3-6.9,15.7-6.2c1.4,0.2,2.7,0.6,4.3,0.9c1.6-5.4,3.2-10.6,4.7-15.9c1.2-4,0.8-4.5-3.5-4.8c-0.4,0-0.8-0.1-1.5-0.2
		c0.3-0.7,0.5-1.7,0.8-1.8c4.4-0.9,8.9-1.8,14-2.7c-1.2,4.3-2.4,8.1-3.5,11.9c-3.7,12.3-7.3,24.6-11,36.9c-0.1,0.5-0.4,1-0.4,1.5
		c0,0.8,0.3,1.5,0.4,2.3c0.8-0.2,1.9-0.2,2.4-0.7c1.5-1.4,2.7-3,4.6-5.1c0.2,1.3,0.7,2.3,0.4,2.6c-2.7,3.1-5.4,6.3-8.5,9
		c-1.1,0.9-3.8,1-5,0.3c-1-0.6-1.1-3-1.1-4.6C1124.4,801.8,1125,799.9,1125.7,797.1z M1110.3,798.9c0.6,1,1.2,3.5,2.6,4.1
		c1.4,0.6,4.2,0,5.5-1.1c5.7-5.2,9.6-11.7,10.9-19.3c0.3-1.6-0.3-4.4-1.4-5.1c-1.5-0.9-4-0.5-6-0.3c-1,0.1-2,1.1-2.7,1.9
		C1114,784.3,1111.5,790.8,1110.3,798.9z"/>
	<path d="M1236.8,779.8c0.4,1.6,0.9,3,1.1,4.5c0.8,7-4.7,12.8-12.7,13.5c-0.8,0.1-1.8-0.2-2.4,0.2c-1.2,0.8-2.6,1.7-3,2.9
		c-0.3,0.7,0.8,2.5,1.8,3.1c2.9,1.7,6,3,9,4.6c3.4,1.8,6.2,4.1,5.9,8.5c-0.3,4.3-3.2,6.8-6.8,8.3c-7.2,2.9-14.6,2.9-21.8-0.1
		c-2.9-1.2-5.4-3.3-5.3-6.8c0.1-3.3,2.4-5.3,5.3-6.6c2.5-1.1,5.2-1.8,7.9-2.8c-1.4-1.8-4.6-3.4-2.3-6.4c1.5-2,3.6-3.5,5.4-5.2
		c-7-3.6-8.9-6.9-7.4-13.1c1.4-6,7-10.5,13.5-10.4c2.6,0,5.1,1,7.7,1.3c3.5,0.4,7.1,0.6,10.6,0.8
		C1243.6,781.4,1239.4,779.3,1236.8,779.8z M1219.2,825.3c2.8-1.2,5.6-1.9,7.9-3.4c2-1.2,2.4-3.5,1.1-5.6
		c-3.5-5.5-12.3-6.7-17.1-2.4c-2.6,2.3-2.8,5.9,0,7.9C1213.3,823.3,1216.2,824,1219.2,825.3z M1231.3,783.4c-0.7-3-0.7-5.9-3.9-6.8
		c-3.2-0.9-5.4,1.1-6.6,3.7c-1.3,2.9-2.3,6-2.8,9.2c-0.4,2.4,0.2,5,3,6.1c2.9,1.1,5.1-0.4,6.4-2.7
		C1229,789.8,1230.1,786.5,1231.3,783.4z"/>
	<path d="M1816.9,782.9c-0.9-1-1.9-2.2-2.8-3.4c-3.8-5-4.5-10.8-1.7-15.4c2.9-4.8,9.3-8.1,15-6.9c3,0.6,6.2,1.8,8.5,3.7
		c4.5,3.8,4.1,10.9-0.5,15.2c-2.3,2.1-5,3.7-7.6,5.5c1.5,1.8,3.1,3.5,4.4,5.4c4.3,6.1,3.2,13.7-2.8,18.2c-5.2,4-11.2,4.9-17.4,2.7
		c-8-2.8-10.3-12-4.3-18C1810.2,787.3,1813.5,785.4,1816.9,782.9z M1826.4,797.8c-0.2-5.5-2.6-8.8-6-11.5c-0.5-0.4-1.6-0.4-2.2-0.1
		c-4.3,2.4-7.4,5.8-8,10.9c-0.5,3.9,1.7,7.8,5,8.9c3.6,1.2,7.7-0.3,9.7-3.9C1825.8,800.5,1826.1,798.6,1826.4,797.8z M1818.1,769.6
		c0.1,2.5,2.8,5.4,5.6,8.3c1.2,1.2,2.2,1.1,3.4,0.2c3.6-2.5,5.6-5.9,5.7-10.2c0.2-5-2.4-8-6.7-8.1
		C1821.6,759.6,1818.2,763.1,1818.1,769.6z"/>
	<path d="M1791.1,782.6c-3.3,1-5.8,2.1-8.3,2.5c-8.7,1.5-15-5.4-13-14c2.3-9.8,11.9-15.9,21.7-13.7c5.8,1.3,9.9,6.8,10.1,13.8
		c0.3,12.2-5.6,21.4-15.2,28.2c-5.7,4-12.2,6.8-18.2,10c-2.6-2.4-1.2-3.1,0.3-3.8c7.2-3.3,13.4-7.9,17.8-14.5
		C1788,788.6,1789.3,785.8,1791.1,782.6z M1794,768.1c-0.1-4.4-1.5-7.2-4.4-8c-3.4-1-6.9,0.6-9,4.2c-2.2,4-2.8,8.3-1.8,12.7
		c0.7,3.3,3.2,5.1,6.1,4.8c3.8-0.3,6.6-2.5,7.6-6.3C1793.2,773.1,1793.6,770.6,1794,768.1z"/>
	<path d="M1866.4,782.9c-2.6,0.8-5.2,1.9-7.8,2.3c-7.8,1.4-13.7-4.2-13.1-12c0.9-10.8,12.3-18.6,22.7-15.4c5.6,1.7,9.3,7,9.3,14
		c0.1,11.6-5.3,20.6-14.4,27c-5.4,3.8-11.8,6.4-17.8,9.4c-0.7,0.3-1.8-0.3-2.7-0.4c0.6-0.7,1-1.6,1.7-2c8.9-4.3,16.2-10.2,20.7-19.2
		c0.5-0.9,0.8-1.9,1.2-2.8C1866.4,783.5,1866.3,783.1,1866.4,782.9z M1870.1,768.2c-0.2-4.8-1.6-7.4-4.7-8.2
		c-3.6-0.9-7.5,0.7-8.9,4.7c-1.3,3.6-1.9,7.7-1.8,11.6c0,3.6,3,5.7,6.1,5.5c3.8-0.2,6.6-2.4,7.7-6.2
		C1869.1,773.2,1869.5,770.7,1870.1,768.2z"/>
	<path d="M1572.9,768c-1-1.4-2-2.1-2.1-3c-0.8-6.1-4.2-9-9.5-7.9c-5.9,1.2-9.1,6.1-7.1,11.6c1.1,3,3.3,5.5,5.2,8.2
		c2.5,3.4,5.4,6.4,7.7,9.9c6.4,10,0.1,20.2-10.5,22.1c-5.9,1-11.6,0.2-17-2.4c-1.6-0.7-2.2-1.5-1.5-3.3c1-2.6,1.6-5.3,2.4-8
		c1.9-0.4,2.6,0.2,2.3,2.2c-0.5,3.5,0.3,6.5,4,8.1c3.9,1.7,9.2,0.9,12-1.9c2.6-2.6,3.5-6.4,1.6-9.9c-1.7-3.1-3.9-5.9-6-8.8
		c-1.4-1.9-3-3.6-4.5-5.5c-4.2-5.4-5.5-11.2-2.1-17.4c3.5-6.2,9.3-8.2,16.1-7.9c1.2,0.1,2.4,0.3,3.6,0.5c7.4,1.7,7.8,2.4,6.1,9.6
		C1573.5,765.2,1573.3,766.1,1572.9,768z"/>
	<path d="M1381.8,758.2c-0.8,3-1.5,5.8-2.3,8.6c-0.3,0.1-0.6,0.3-0.9,0.4c-0.5-0.8-1.4-1.6-1.5-2.5c-0.5-5.4-3.8-8.5-8.8-7.8
		c-5.6,0.8-9.4,5.4-8.1,10.5c0.7,2.7,2.3,5.2,4,7.5c2.6,3.5,5.7,6.7,8.3,10.2c8.5,12,0.1,23.4-11.9,24c-5.9,0.3-11.3-0.7-16.6-3.8
		c0.9-3.1,1.6-6.1,2.6-9.1c0.2-0.5,1.2-0.7,1.8-1.1c0.3,0.6,1,1.3,0.9,1.9c-0.5,3.7,0.2,6.7,3.9,8.4c4,1.8,9.4,0.9,12.3-2
		c2.7-2.7,3.4-6.5,1.2-10.1c-2.4-3.9-5.5-7.3-8-11.1c-2.2-3.4-4.9-6.8-5.7-10.6c-1.7-8,3.4-15,11.5-16.9
		C1370.6,753.2,1376.4,754.5,1381.8,758.2z"/>
	<path d="M1638.1,796.9c0.1,1.4,0.5,2.5,0.1,2.9c-3.1,2.9-6.1,6-9.6,8.3c-1.3,0.9-4.3,0.8-5.6-0.2c-1.1-0.8-1.6-3.6-1.1-5.1
		c1.6-5.6,3.7-11,5.6-16.5c0.5-1.4,1.1-2.9,1.3-4.4c0.1-1,0-2.6-0.7-3c-0.8-0.5-2.6-0.7-3.3-0.2c-2,1.4-4.1,3-5.2,5
		c-3,5.4-5.4,11.1-8,16.8c-0.8,1.7-1.3,3.4-2,5.1c-1.1,2.6-4.2,3.7-6.5,2.1c-0.6-0.4-0.7-2.3-0.4-3.3c2-5.8,4.3-11.5,6.4-17.2
		c0.3-0.9,0.6-2,0.5-3c-0.1-1-0.5-2.5-1.2-2.7c-0.7-0.3-1.9,0.5-2.8,1c-0.4,0.2-0.6,0.9-1,1.2c-0.3,0.3-0.9,0.3-1.3,0.4
		c-0.1-0.5-0.5-1.3-0.3-1.5c2.3-2.8,4.3-6,7.2-8.1c3.3-2.3,6.3-0.2,6.1,3.9c-0.1,1.8-0.5,3.6-0.7,5.1c2-1.9,4.1-3.9,6.3-5.9
		c2.8-2.5,5.9-4.3,9.9-4c3.6,0.3,5.6,2.5,4.8,6c-0.8,3.7-2.2,7.2-3.5,10.7c-1,2.8-2.1,5.5-2.9,8.4c-0.3,0.9,0.2,2,0.3,3
		c1-0.3,2.2-0.3,3-0.9C1635,800.1,1636.2,798.8,1638.1,796.9z"/>
	<path d="M1204.9,799.4c-2.9,2.7-5.7,5.5-8.8,7.9c-2.1,1.7-4.8,2.8-7.4,0.9c-2.6-1.9-1.6-4.7-0.8-7c1.9-5.7,4.1-11.3,6.1-17
		c0.6-1.8,2-4.2-0.4-5.5c-2.2-1.2-4.4,0.2-5.6,2c-2.8,4.1-5.5,8.3-7.8,12.7c-2,3.9-3.2,8.1-4.9,12.2c-1.1,2.8-3.9,3.9-6.4,2.3
		c-0.6-0.4-0.9-2.3-0.6-3.2c1.7-4.9,3.8-9.7,5.6-14.5c0.7-1.8,1.2-3.7,1.4-5.6c0.1-1-0.6-2-0.9-3c-1.1,0.4-2.1,0.7-3.2,1.2
		c-0.8,0.4-1.5,1-2.3,1.5c0.2-1,0.1-2.2,0.6-2.9c1.8-2.3,3.7-4.7,5.9-6.4c1.1-0.8,3.5-1,4.8-0.3c1,0.5,1.6,2.7,1.7,4.1
		c0.1,1.8-0.4,3.6-0.5,4.8c2.1-1.9,4.4-4.1,6.9-6.2c2.6-2.2,5.6-3.8,9.2-3.5c3.7,0.3,5.7,2.5,4.9,6.1c-0.8,3.6-2.2,7-3.4,10.4
		c-1,2.9-2.2,5.7-3,8.6c-0.3,0.8,0.2,1.9,0.3,2.8c1-0.2,2.2-0.2,3-0.7c1.1-0.7,1.9-1.9,2.9-2.7c0.6-0.4,1.5-0.3,2.3-0.4
		C1204.6,798.6,1204.8,799,1204.9,799.4z"/>
	<path d="M1064.5,785.8c-4.2,5.4-8.2,10.9-12.6,16.2c-1.9,2.3-4.3,4.4-6.9,5.9c-1.4,0.8-4,0.9-5.2,0.1c-0.9-0.6-1-3.4-0.5-4.9
		c1.9-5.8,4.1-11.5,6.2-17.3c0.3-1,0.7-1.9,0.9-2.9c0.1-0.6,0-1.6-0.4-1.9c-0.4-0.3-1.4-0.2-1.9,0.1c-1.2,0.7-2.3,1.7-3.9,2.9
		c0-1.1-0.3-2,0-2.3c2.7-2.5,5.2-5.2,8.3-7.1c1.3-0.8,4-0.6,5.3,0.3c0.9,0.6,1,3.4,0.6,4.8c-2,6.1-4.4,12.1-6.6,18.1
		c-0.4,1.1-0.5,2.3-0.7,3.4c0.3,0.2,0.6,0.4,0.8,0.7c1.3-1.1,2.9-1.9,3.9-3.3c5.2-7.1,10.2-14.3,15.2-21.5c1.3-1.8,2.3-3.6,5.1-2.8
		c2.3,0.6,2.7,1.8,1.9,3.8c-2.4,6.3-4.9,12.6-7.1,18.9c-0.5,1.5-0.3,3.2-0.4,4.9c1.6-0.7,3.2-1.3,4.7-2c0.5-0.3,0.8-0.9,1.3-1.2
		c0.4-0.3,1-0.3,1.5-0.5c0,0.6,0.2,1.5-0.1,1.8c-2.8,2.8-5.5,5.8-8.7,8c-1.4,0.9-4.4,0.8-5.8-0.1c-1-0.7-1.2-3.8-0.6-5.4
		c1.8-5.6,4.1-11.1,6.1-16.6C1064.8,785.9,1064.6,785.8,1064.5,785.8z"/>
	<path d="M1300.5,809c-7.4-0.1-12.6-5.6-12.2-13.5c0.4-8.4,4.2-15.1,11.5-19.5c7.2-4.4,15.6-2.3,18.8,4.2
		C1324.2,791.8,1313.3,809.1,1300.5,809z M1312.1,784.1c0-0.7,0-1.4,0-2.1c-0.1-2.4-0.8-4.5-3.4-5.3c-2.5-0.7-4.5,0.3-5.9,2.3
		c-4.7,6.9-7.4,14.5-6.8,23c0.3,4.1,4.2,5.8,7.6,3.4c1.2-0.9,2.3-2.1,3-3.4C1310,796.5,1311.9,790.5,1312.1,784.1z"/>
	<path d="M1461.1,779.5c-3.9,0.2-7,0.1-10,0.5c-3.4,0.5-4,2.4-1.9,5c1.1,1.4,2,2.9,0.5,4.3c-0.8,0.8-2.9,1.5-3.3,1.1
		c-1.1-1-2.4-2.8-2.2-4.1c0.6-4.6,3-8.4,6.3-11.6c0.5-0.5,1.3-0.8,1.9-0.8c4.9-0.1,9.7,0,15.3,0c-0.9,1.3-1.4,2.1-1.9,2.9
		c-2.7,4.8-5.4,9.5-8,14.4c-0.6,1.2-0.7,2.8-0.7,4.2c0,5.1,3.7,7.9,8.6,6.5c6-1.6,12.4-10.6,11.7-16.8c-0.2-1.6-1.6-3-2.1-4.6
		c-0.5-1.5-1.1-3.5-0.5-4.7c0.5-1,2.8-2,4-1.7c1.4,0.3,3.1,2,3.4,3.3c0.5,2.3,0.3,4.9-0.3,7.2c-2,8.3-6,15.6-12.9,21
		c-3,2.4-6.4,3.6-10.2,3.3c-4.1-0.3-7-3-7.6-7.1c-0.6-4.2,0.8-7.9,2.7-11.4c1-1.8,2.1-3.5,3.2-5.2
		C1458.3,783.6,1459.5,781.9,1461.1,779.5z"/>
	<path d="M1748.6,765.1c-2.3,1-3.7,1.7-5.2,2.3c-1.5,0.6-3,1.2-4.6,1.7c-1.4-1.5-1.3-2.3,0.6-3.2c4.8-2.5,9.4-5.3,14.1-7.9
		c1.3-0.7,2.9-0.9,5.1-1.5c-2.2,8-4.2,15-6.2,22.1c-2,7.3-4.2,14.5-6.2,21.8c-1,3.5-0.1,4.7,3.6,5c0.3,0,0.7-0.1,0.9,0.1
		c0.6,0.4,1.2,0.9,1.9,1.4c-0.6,0.4-1.2,1.1-1.8,1.1c-6.8,0.1-13.7,0.1-21.1-0.6c0.6-0.6,1.1-1.7,1.7-1.8c3.7-0.5,6-2.8,7.1-6
		C1741.8,788.3,1745,777.1,1748.6,765.1z"/>
	<path d="M1511.3,801.4c-2.2,3.3-5.2,5.7-9,7c-8.7,3-15.9-2.4-15.3-11.6c0.6-8.6,4.7-15.3,11.9-20.1c3.2-2.1,6.7-3,10.5-2.7
		c3,0.2,5.5,1.4,6.6,4.2c1.2,3,0.5,5.9-2,8.1c-3.6,3.4-8.1,4.5-12.8,5.4c-0.3,0.1-0.6,0-0.9,0.1c-5.6,0.6-6.3,1.5-5.4,7.1
		c0.7,4.1,4.3,6.7,8.3,5.5c1.9-0.5,3.6-1.9,5.3-2.8c0.7-0.4,1.5-0.7,2.3-1.1C1511,800.8,1511.2,801.1,1511.3,801.4z M1495.6,789.2
		c0.3,0.3,0.7,0.5,1,0.8c5.2-0.3,10-1.7,12.6-6.9c1-2,1.5-4.6-0.6-6.2c-2.2-1.6-4.5-0.5-5.9,1.4
		C1500.1,781.8,1497.9,785.6,1495.6,789.2z"/>
	<path d="M1385,795.1c0.7-8,5.4-15.5,14.5-19.7c2.5-1.2,5.7-1.3,8.6-1.2c2.8,0.1,5,1.7,6,4.6c1,3,0,5.5-2.1,7.5
		c-3.5,3.5-8.1,4.6-12.7,5.5c-0.4,0.1-0.8,0.1-1.2,0.1c-5,0.5-6.1,1.7-5.5,6.1c0.6,4.7,4,7.7,8.1,6.7c2.2-0.5,4.1-2.1,6.1-3.2
		c0.6-0.3,1.2-0.4,1.8-0.6c-0.1,0.6,0,1.4-0.3,1.8c-2.6,3.2-5.8,5.5-9.8,6.3C1390.3,810.4,1385,805.8,1385,795.1z M1394,789.6
		c5.9,0.7,11.9-2.6,13.4-7.3c0.6-2,1.1-4.5-1.1-5.4c-1.4-0.6-3.9,0-5.2,1C1397.3,780.9,1395.6,785.2,1394,789.6z"/>
	<path d="M1699.9,800.5c-2.8,6.4-9.5,9.6-15.7,8.4c-4.2-0.8-7.3-4.3-7.8-9.1c-1.2-10,5.5-21.3,15-24.7c2.5-0.9,5.4-1.1,8.1-0.9
		c2.8,0.1,5,1.7,5.9,4.6c0.9,2.8,0.1,5.3-1.9,7.3c-3.5,3.6-8.2,4.8-13,5.7c-0.3,0.1-0.6,0.1-0.9,0.1c-5.3,0.6-6.5,2-5.6,6.7
		c0.9,4.7,4.6,7.2,8.9,5.8c1.8-0.6,3.3-1.9,5-2.8C1698.5,801.1,1699.2,800.8,1699.9,800.5z M1685.3,789.7c6,0.5,11.7-2.6,13.3-7.3
		c0.7-2.1,1-4.2-1-5.5c-2-1.4-4-0.4-5.5,1.1C1688.7,781.2,1686.8,785.3,1685.3,789.7z"/>
	<path d="M1270.4,779c-1.5,0-2.8,0.1-4.1-0.1c-0.5-0.1-0.9-0.7-1.4-1.1c0.5-0.5,1.1-1.5,1.4-1.4c5.3,1.2,5.9-2.5,6.8-6.1
		c0.3-1.3,1-3.1,2-3.5c1.6-0.5,3.5-0.2,5.2,0.2c0.3,0.1,0.2,2.5-0.1,3.8c-0.3,1.7-0.9,3.3-1.5,5.1c2.5,0.4,4.9,0.8,7.2,1.2
		c0.1,0,0,1.1,0,1.8c-0.8,0.1-1.4,0.1-2,0.2c-6.1,0.2-6.1,0.2-7.9,6.2c-1.2,4.4-2.7,8.8-3.6,13.3c-0.3,1.5,0.5,3.2,0.8,4.8
		c1.5-0.5,3.2-0.8,4.6-1.6c1-0.5,1.8-1.7,2.7-2.5c0.3-0.2,1-0.2,1.3,0c0.3,0.2,0.4,1,0.2,1.2c-2.9,4-6,7.9-11.4,8.5
		c-5.5,0.7-8-2.2-6.6-7.5c1.8-6.8,3.9-13.5,5.8-20.3C1270.2,780.6,1270.2,780,1270.4,779z"/>
	<path d="M1643.7,796.3c-0.5-10.5,10-24.1,23.6-22.3c3.9,0.5,6.9,3,6.9,6.2c0,2.3-0.9,4-3.4,4.2c-2.7,0.2-3.5-1.5-3.7-3.8
		c-0.3-4-2-5.2-5.7-3.8c-1.5,0.6-2.9,1.5-4,2.6c-4.9,5-6.7,11.2-6,18c0.6,5.7,5.8,8.3,11.2,5.6c1.4-0.7,2.6-1.9,4-2.7
		c0.4-0.2,1-0.1,1.6-0.1c0,0.5,0.1,1.2-0.1,1.6c-2.8,5.1-11,8.5-16.5,7C1646.5,807.4,1643.7,802.9,1643.7,796.3z"/>
	<path d="M1429.9,785.5c2.1-3,3.8-5.8,5.8-8.3c1.6-2.1,3.7-3.7,6.6-3.1c1.1,0.2,2.7,1.3,2.8,2.1c0.2,1.5-0.3,3.4-1.1,4.7
		c-0.4,0.7-2.2,1.1-3.2,0.8c-4.7-1.2-5.8-1-7.9,3.4c-3.1,6.5-5.8,13.2-8.5,19.9c-1.1,2.8-3,3.6-5.8,3.2c-2.1-0.3-2.7-1.2-1.8-3.4
		c2.3-5.7,4.3-11.4,6.4-17.1c0.2-0.5,0.5-1,0.4-1.5c-0.1-1.6-0.4-3.2-0.6-4.8c-1.3,0.7-2.6,1.4-3.9,2.1c-0.5,0.2-1,0.4-1.5,0.5
		c-0.1-0.5-0.4-1.3-0.1-1.6c2.2-2.7,4.2-5.9,7-7.8c3.6-2.5,6.7-0.4,6.5,4C1430.9,780.9,1430.4,783,1429.9,785.5z"/>
	<path d="M1092,774c3.2,0,4.8,2,3.7,5.4c-1.4,4.8-3.3,9.4-4.9,14.1c-0.8,2.3-1.7,4.6-2.3,6.9c-0.2,0.6,0.1,1.8,0.5,2.1
		c0.5,0.4,1.7,0.3,2.2-0.1c1.6-1.2,3.1-2.7,4.6-3.9c0.4-0.3,1-0.3,1.5-0.5c0,0.6,0.3,1.5-0.1,1.8c-3.2,2.9-6.3,6.1-9.9,8.4
		c-1.4,0.9-4.2,0.5-5.9-0.4c-2-1.1-1.7-3.4-0.9-5.5c2.3-6.2,4.6-12.4,6.8-18.6c0.3-1,0-2.2-0.1-3.3c-1.1,0.3-2.3,0.4-3.3,0.9
		c-1,0.5-1.7,1.5-2.6,2.1c-0.3,0.2-1,0.2-1.3,0c-0.3-0.2-0.4-0.9-0.2-1.3C1081.2,779.1,1088.9,774,1092,774z"/>
	<path d="M1156.8,774c3.1,0,4.8,1.8,3.9,4.9c-1.5,5.2-3.5,10.2-5.3,15.3c-0.7,1.9-1.5,3.8-2,5.8c-0.2,0.8-0.1,2.3,0.4,2.5
		c0.8,0.3,2.1,0.2,2.8-0.2c1.5-1,2.7-2.4,4.1-3.6c0.4-0.3,1.2-0.3,1.8-0.5c-0.1,0.6,0.1,1.5-0.2,1.8c-3.1,2.8-6,5.9-9.4,8.1
		c-1.5,1-4.4,0.7-6.2-0.1c-2.2-1.1-1.8-3.6-1-5.8c2.2-6.1,4.6-12.2,6.8-18.3c0.4-1,0.1-2.3,0.1-3.4c-1.2,0.3-2.5,0.3-3.6,0.8
		c-1,0.5-1.7,1.5-2.6,2.1c-0.3,0.2-0.9,0.1-1.3-0.2c-0.2-0.1-0.3-0.7-0.2-1C1145.6,779.5,1153.7,774,1156.8,774z"/>
	<path d="M1597.4,798.9c-3,3.7-6,7.5-10.5,9.3c-1.7,0.7-4.5,0.6-5.9-0.4c-1.1-0.8-1.5-3.8-1-5.4c2-6.2,4.5-12.2,6.6-18.4
		c0.4-1.1,0.1-2.4,0.1-3.6c-1.3,0.4-2.6,0.6-3.8,1.1c-1.3,0.5-2.4,1.1-3.6,1.7c0.7-1.2,1.2-2.6,2.2-3.5c2-1.8,4.1-3.7,6.6-4.9
		c1.6-0.8,4.4-0.9,5.6,0c1.1,0.9,1.5,3.7,1,5.4c-1.5,5.3-3.7,10.4-5.5,15.5c-0.6,1.5-1.2,3.1-1.5,4.6c-0.2,0.7,0.1,1.8,0.5,2.2
		c0.5,0.4,1.7,0.3,2.2,0c1.6-1.1,2.9-2.5,4.4-3.7c0.6-0.4,1.4-0.5,2.1-0.8C1597.1,798.3,1597.2,798.6,1597.4,798.9z"/>
	<path d="M1100.6,758.7c0,2.4-1.9,4.3-4.2,4.4c-2.4,0.1-4.5-2.1-4.5-4.4c0-2.4,2.2-4.4,4.6-4.3
		C1098.9,754.3,1100.7,756.2,1100.6,758.7z"/>
	<path d="M1165.5,758.7c-0.1,2.3-2,4.3-4.3,4.3c-2.4,0-4.5-2.1-4.4-4.5c0.1-2.4,2.2-4.4,4.7-4.2
		C1163.9,754.4,1165.6,756.3,1165.5,758.7z"/>
	<path d="M1599.8,758.4c0.1,2.5-1.9,4.6-4.3,4.6c-2.3,0-4.3-2-4.4-4.2c-0.1-2.4,1.9-4.5,4.4-4.5
		C1597.9,754.2,1599.8,756,1599.8,758.4z"/>
</g>
</svg>
